<svg width="50px" height="50px" viewBox="0 0 1 1" xmlns="http://www.w3.org/2000/svg">
  <g fill="#fefefe" fill-rule="evenodd" clip-rule="evenodd">
    <path d="M0.362 0.207 0.207 0.362a0.063 0.063 0 0 0 0 0.088l0.155 0.155a0.063 0.063 0 0 0 0.088 0L0.605 0.45a0.063 0.063 0 0 0 0 -0.088L0.45 0.207a0.063 0.063 0 0 0 -0.088 0zm0.044 0.309L0.296 0.406l0.11 -0.111L0.517 0.406 0.406 0.517z"/>
    <path d="M0 0.406a0.406 0.406 0 0 1 0.772 -0.178 0.406 0.406 0 1 1 -0.543 0.543A0.406 0.406 0 0 1 0 0.406zm0.406 -0.313a0.313 0.313 0 1 0 0 0.625 0.313 0.313 0 0 0 0 -0.625zm0.406 0.313c0 -0.013 -0.001 -0.025 -0.002 -0.037a0.313 0.313 0 1 1 -0.442 0.442A0.406 0.406 0 0 0 0.813 0.406z"/>
  </g>
</svg>
